<svg width="60" height="61" viewBox="0 0 60 61" fill="none" xmlns="http://www.w3.org/2000/svg">
<g id="Icon" clip-path="url(#clip0_109_39)">
<path id="Vector" d="M30.7701 29.2274C30.7701 29.2274 30.8203 29.1772 30.9208 29.0767C31.0212 28.9763 31.0714 28.7698 31.0714 28.4573C31.0714 28.1448 30.971 27.8881 30.7701 27.6872C30.5692 27.4863 30.3125 27.3859 30 27.3859C28.5268 27.3859 27.2656 27.9104 26.2165 28.9595C25.1674 30.0087 24.6429 31.2698 24.6429 32.743C24.6429 33.0555 24.7433 33.3122 24.9442 33.5131C25.1451 33.714 25.4018 33.8145 25.7143 33.8145C26.0268 33.8145 26.2835 33.714 26.4844 33.5131C26.6853 33.3122 26.7857 33.0555 26.7857 32.743C26.7857 31.8502 27.0982 31.0912 27.7232 30.4662C28.3482 29.8412 29.1071 29.5287 30 29.5287C30.3125 29.5287 30.5692 29.4283 30.7701 29.2274ZM36.0603 26.7497C36.0603 26.7497 36.4788 27.1682 37.3158 28.0053C38.1529 28.8424 38.5714 30.4439 38.5714 32.81C38.5714 35.1761 37.7344 37.1962 36.0603 38.8703C34.3862 40.5444 32.3661 41.3814 30 41.3814C27.6339 41.3814 25.6138 40.5444 23.9397 38.8703C22.2656 37.1962 21.4286 35.1761 21.4286 32.81C21.4286 30.4439 22.2656 28.4238 23.9397 26.7497C25.6138 25.0756 27.6339 24.2386 30 24.2386C32.3661 24.2386 34.3862 25.0756 36.0603 26.7497ZM4.28571 52.0287H55.7143V47.743H4.28571V52.0287ZM39.0904 41.9004C39.0904 41.9004 39.7182 41.2726 40.9738 40.017C42.2294 38.7614 42.8571 36.3591 42.8571 32.81C42.8571 29.2609 41.6016 26.2307 39.0904 23.7196C36.5792 21.2084 33.5491 19.9528 30 19.9528C26.4509 19.9528 23.4208 21.2084 20.9096 23.7196C18.3984 26.2307 17.1429 29.2609 17.1429 32.81C17.1429 36.3591 18.3984 39.3892 20.9096 41.9004C23.4208 44.4116 26.4509 45.6671 30 45.6671C33.5491 45.6671 36.5792 44.4116 39.0904 41.9004ZM8.57143 11.3145H21.4286V7.02874H8.57143V11.3145ZM4.28571 17.743H55.7143V13.7921V9.1716H27.9911L25.8482 13.4573H4.28571V17.743ZM60 9.1716V52.0287C60 53.2118 59.5815 54.2218 58.7444 55.0589C57.9074 55.8959 56.8973 56.3145 55.7143 56.3145H4.28571C3.10268 56.3145 2.09263 55.8959 1.25558 55.0589C0.418527 54.2218 0 53.2118 0 52.0287V9.1716C0 7.98856 0.418527 6.97852 1.25558 6.14146C2.09263 5.30441 3.10268 4.88588 4.28571 4.88588H55.7143C56.8973 4.88588 57.9074 5.30441 58.7444 6.14146C59.5815 6.97852 60 7.98856 60 9.1716Z" fill="white"/>
</g>
<defs>
<clipPath id="clip0_109_39">
<rect width="60" height="60" fill="white" transform="matrix(1 0 0 -1 0 60.6001)"/>
</clipPath>
</defs>
</svg>
