<svg width="60" height="61" viewBox="0 0 60 61" fill="none" xmlns="http://www.w3.org/2000/svg">
<g id="Icon" clip-path="url(#clip0_109_27)">
<path id="Vector" d="M59.0625 0.968403C59.7991 1.50412 60.1004 2.2184 59.9665 3.11126L51.3951 54.5398C51.2835 55.1872 50.9263 55.6894 50.3237 56.0465C50.0112 56.2251 49.6652 56.3144 49.2857 56.3144C49.0402 56.3144 48.7723 56.2586 48.4821 56.147L30.837 48.9483L20.8594 59.897C20.4576 60.3657 19.933 60.6001 19.2857 60.6001C18.9732 60.6001 18.7165 60.5555 18.5156 60.4662C18.0915 60.3099 17.7567 60.0476 17.5112 59.6793C17.2656 59.311 17.1429 58.9037 17.1429 58.4572V43.3233L1.33928 36.8613C0.513388 36.5488 0.0669597 35.9349 -4.58918e-06 35.0197C-0.0669689 34.1492 0.290174 33.4907 1.07142 33.0443L56.7857 0.901439C57.567 0.432689 58.3259 0.45501 59.0625 0.968403ZM47.6116 51.1581L55.0112 6.86126L6.99776 34.551L18.2478 39.138L47.1429 17.743L31.1384 44.4282L47.6116 51.1581Z" fill="white"/>
</g>
<defs>
<clipPath id="clip0_109_27">
<rect width="60" height="60" fill="white" transform="matrix(1 0 0 -1 0 60.6001)"/>
</clipPath>
</defs>
</svg>
