<svg width="60" height="61" viewBox="0 0 60 61" fill="none" xmlns="http://www.w3.org/2000/svg">
<g id="Icon" clip-path="url(#clip0_109_33)">
<path id="Vector" d="M55.7143 20.5555C55.7143 18.7475 55.4743 17.1515 54.9944 15.7676C54.5145 14.3837 53.9007 13.2843 53.1529 12.4696C52.4051 11.6549 51.4955 10.9908 50.4241 10.4774C49.3527 9.96401 48.3036 9.61803 47.2768 9.43945C46.25 9.26088 45.1562 9.1716 43.9955 9.1716C42.8348 9.1716 41.5848 9.4562 40.2455 10.0254C38.9062 10.5946 37.673 11.3089 36.5458 12.1682C35.4185 13.0276 34.4531 13.8312 33.6496 14.579C32.846 15.3267 32.1763 16.0131 31.6406 16.6381C31.2388 17.1292 30.692 17.3747 30 17.3747C29.308 17.3747 28.7612 17.1292 28.3594 16.6381C27.8237 16.0131 27.154 15.3267 26.3504 14.579C25.5469 13.8312 24.5815 13.0276 23.4542 12.1682C22.327 11.3089 21.0937 10.5946 19.7545 10.0254C18.4152 9.4562 17.1652 9.1716 16.0045 9.1716C14.8437 9.1716 13.75 9.26088 12.7232 9.43945C11.6964 9.61803 10.6473 9.96401 9.57589 10.4774C8.50446 10.9908 7.59487 11.6549 6.8471 12.4696C6.09933 13.2843 5.48549 14.3837 5.00558 15.7676C4.52567 17.1515 4.28571 18.7475 4.28571 20.5555C4.28571 24.3055 6.37277 28.2676 10.5469 32.4417L30 51.1917L49.4196 32.4752C53.6161 28.2787 55.7143 24.3055 55.7143 20.5555ZM60 20.5555C60 25.4886 57.4442 30.5109 52.3326 35.6225L31.4732 55.7118C31.0714 56.1136 30.5804 56.3145 30 56.3145C29.4196 56.3145 28.9286 56.1136 28.5268 55.7118L7.63393 35.5555C7.41071 35.377 7.10379 35.0868 6.71317 34.685C6.32254 34.2832 5.70312 33.5522 4.85491 32.4919C4.0067 31.4316 3.24777 30.3435 2.57812 29.2274C1.90848 28.1113 1.31138 26.7609 0.78683 25.1761C0.262277 23.5912 0 22.0511 0 20.5555C0 15.6448 1.41741 11.8055 4.25223 9.03767C7.08705 6.26981 11.0045 4.88588 16.0045 4.88588C17.3884 4.88588 18.8002 5.12584 20.24 5.60575C21.6797 6.08566 23.019 6.73298 24.2578 7.54771C25.4967 8.36245 26.5625 9.12695 27.4554 9.84124C28.3482 10.5555 29.1964 11.3145 30 12.118C30.8036 11.3145 31.6518 10.5555 32.5446 9.84124C33.4375 9.12695 34.5033 8.36245 35.7422 7.54771C36.981 6.73298 38.3203 6.08566 39.76 5.60575C41.1998 5.12584 42.6116 4.88588 43.9955 4.88588C48.9955 4.88588 52.9129 6.26981 55.7478 9.03767C58.5826 11.8055 60 15.6448 60 20.5555Z" fill="white"/>
</g>
<defs>
<clipPath id="clip0_109_33">
<rect width="60" height="60" fill="white" transform="matrix(1 0 0 -1 0 60.6001)"/>
</clipPath>
</defs>
</svg>
